<?xml version="1.0" encoding="UTF-8"?>
<svg xmlns="http://www.w3.org/2000/svg"
     xmlns:xlink="http://www.w3.org/1999/xlink"
     version="1.2"
     width="160mm" height="100mm" viewBox="0 0 160 100"
     stroke="none"
     fill="#000000"
     stroke-width="0.3"
     font-size="3.88"
>
<defs>
  <marker id="arrow" markerWidth="15" markerHeight="7" refX="5" refY="3.5" orient="auto" markerUnits="strokeWidth">
    <path d="M0,0 L15,3.5 L0,7 z" stroke="context-stroke" fill="context-stroke"/>
  </marker>
</defs>
<g fill="#000000" fill-opacity="0.000" id="img-5875ce03-1">
  <g transform="translate(136.9,64.73)" stroke-width="2" stroke="#F37C82">
    <path fill="none" d="M5.3,-7.99 L-5.3,7.99 " class="primitive"/>
  </g>
  <g transform="translate(113.33,70.83)" stroke-width="2" stroke="#F37C82">
    <path fill="none" d="M25.08,-15.68 L-25.08,15.68 " class="primitive"/>
  </g>
  <g transform="translate(103.57,85.56)" stroke-width="2" stroke="#F37C82">
    <path fill="none" d="M12.79,-3.31 L-12.79,3.31 " class="primitive"/>
  </g>
  <g transform="translate(89.76,64.73)" stroke-width="1.99" stroke="#F37C82">
    <path fill="none" d="M46.12,-11.94 L-46.12,11.94 " class="primitive"/>
  </g>
  <g transform="translate(80,79.46)" stroke-width="1.99" stroke="#F37C82">
    <path fill="none" d="M35.47,0 L-35.47,0 " class="primitive"/>
  </g>
  <g transform="translate(56.43,85.56)" stroke-width="1.99" stroke="#F37C82">
    <path fill="none" d="M12.79,3.31 L-12.79,-3.31 " class="primitive"/>
  </g>
  <g transform="translate(80,50)" stroke-width="2" stroke="#F37C82">
    <path fill="none" d="M55,-0 L-55,0 " class="primitive"/>
  </g>
  <g transform="translate(70.24,64.73)" stroke-width="2" stroke="#F37C82">
    <path fill="none" d="M46.12,11.94 L-46.12,-11.94 " class="primitive"/>
  </g>
  <g transform="translate(46.67,70.83)" stroke-width="2" stroke="#F37C82">
    <path fill="none" d="M25.08,15.68 L-25.08,-15.68 " class="primitive"/>
  </g>
  <g transform="translate(23.1,64.73)" stroke-width="1.99" stroke="#F37C82">
    <path fill="none" d="M5.3,7.99 L-5.3,-7.99 " class="primitive"/>
  </g>
  <g transform="translate(89.76,35.27)" stroke-width="2" stroke="#F37C82">
    <path fill="none" d="M46.12,11.94 L-46.12,-11.94 " class="primitive"/>
  </g>
  <g transform="translate(80,50)" stroke-width="2" stroke="#F37C82">
    <path fill="none" d="M38.89,24.31 L-38.89,-24.31 " class="primitive"/>
  </g>
  <g transform="translate(56.43,56.1)" stroke-width="2" stroke="#F37C82">
    <path fill="none" d="M19.11,28.83 L-19.11,-28.83 " class="primitive"/>
  </g>
  <g transform="translate(32.86,50)" stroke-width="1.99" stroke="#F37C82">
    <path fill="none" d="M0,22.17 L-0,-22.17 " class="primitive"/>
  </g>
  <g transform="translate(23.1,35.27)" stroke-width="2" stroke="#F37C82">
    <path fill="none" d="M-5.3,7.99 L5.3,-7.99 " class="primitive"/>
  </g>
  <g transform="translate(113.33,29.17)" stroke-width="2" stroke="#F37C82">
    <path fill="none" d="M25.08,15.68 L-25.08,-15.68 " class="primitive"/>
  </g>
  <g transform="translate(103.57,43.9)" stroke-width="2" stroke="#F37C82">
    <path fill="none" d="M19.11,28.83 L-19.11,-28.83 " class="primitive"/>
  </g>
  <g transform="translate(80,50)" stroke-width="2" stroke="#F37C82">
    <path fill="none" d="M0,34.38 L-0,-34.38 " class="primitive"/>
  </g>
  <g transform="translate(56.43,43.9)" stroke-width="1.99" stroke="#F37C82">
    <path fill="none" d="M-19.11,28.83 L19.11,-28.83 " class="primitive"/>
  </g>
  <g transform="translate(46.67,29.17)" stroke-width="2" stroke="#F37C82">
    <path fill="none" d="M-25.08,15.68 L25.08,-15.68 " class="primitive"/>
  </g>
  <g transform="translate(56.43,14.44)" stroke-width="2" stroke="#F37C82">
    <path fill="none" d="M-12.79,3.31 L12.79,-3.31 " class="primitive"/>
  </g>
  <g transform="translate(136.9,35.27)" stroke-width="2" stroke="#F37C82">
    <path fill="none" d="M5.3,7.99 L-5.3,-7.99 " class="primitive"/>
  </g>
  <g transform="translate(127.14,50)" stroke-width="2" stroke="#F37C82">
    <path fill="none" d="M0,22.17 L0,-22.17 " class="primitive"/>
  </g>
  <g transform="translate(103.57,56.1)" stroke-width="2" stroke="#F37C82">
    <path fill="none" d="M-19.11,28.83 L19.11,-28.83 " class="primitive"/>
  </g>
  <g transform="translate(80,50)" stroke-width="1.99" stroke="#F37C82">
    <path fill="none" d="M-38.89,24.31 L38.89,-24.31 " class="primitive"/>
  </g>
  <g transform="translate(70.24,35.27)" stroke-width="2" stroke="#F37C82">
    <path fill="none" d="M-46.12,11.94 L46.12,-11.94 " class="primitive"/>
  </g>
  <g transform="translate(80,20.54)" stroke-width="2" stroke="#F37C82">
    <path fill="none" d="M-35.47,0 L35.47,-0 " class="primitive"/>
  </g>
  <g transform="translate(103.57,14.44)" stroke-width="2" stroke="#F37C82">
    <path fill="none" d="M-12.79,-3.31 L12.79,3.31 " class="primitive"/>
  </g>
</g>
<g font-size="4" stroke="#000000" stroke-opacity="0.000" fill="#000000" id="img-5875ce03-2">
</g>
<g stroke-width="0" stroke="#000000" stroke-opacity="0.000" id="img-5875ce03-3">
  <g transform="translate(146.67,50)" fill="#B2B2B2">
    <circle cx="0" cy="0" r="11.2" class="primitive"/>
  </g>
  <g transform="translate(127.14,79.46)" fill="#B2B2B2">
    <circle cx="0" cy="0" r="11.2" class="primitive"/>
  </g>
  <g transform="translate(80,91.67)" fill="#B2B2B2">
    <circle cx="0" cy="0" r="11.2" class="primitive"/>
  </g>
  <g transform="translate(32.86,79.46)" fill="#B2B2B2">
    <circle cx="0" cy="0" r="11.2" class="primitive"/>
  </g>
  <g transform="translate(13.33,50)" fill="#B2B2B2">
    <circle cx="0" cy="0" r="11.2" class="primitive"/>
  </g>
  <g transform="translate(32.86,20.54)" fill="#B2B2B2">
    <circle cx="0" cy="0" r="11.2" class="primitive"/>
  </g>
  <g transform="translate(80,8.33)" fill="#B2B2B2">
    <circle cx="0" cy="0" r="11.2" class="primitive"/>
  </g>
  <g transform="translate(127.14,20.54)" fill="#B2B2B2">
    <circle cx="0" cy="0" r="11.2" class="primitive"/>
  </g>
</g>
<g font-size="4" stroke="#000000" stroke-opacity="0.000" fill="#000000" id="img-5875ce03-4">
  <g transform="translate(146.67,50)">
    <g class="primitive">
      <text text-anchor="middle" dy="0.35em">gNa</text>
    </g>
  </g>
  <g transform="translate(127.14,79.46)">
    <g class="primitive">
      <text text-anchor="middle" dy="0.35em">gCaT</text>
    </g>
  </g>
  <g transform="translate(80,91.67)">
    <g class="primitive">
      <text text-anchor="middle" dy="0.35em">gCaS</text>
    </g>
  </g>
  <g transform="translate(32.86,79.46)">
    <g class="primitive">
      <text text-anchor="middle" dy="0.35em">gA</text>
    </g>
  </g>
  <g transform="translate(13.33,50)">
    <g class="primitive">
      <text text-anchor="middle" dy="0.35em">gKCa</text>
    </g>
  </g>
  <g transform="translate(32.86,20.54)">
    <g class="primitive">
      <text text-anchor="middle" dy="0.35em">gKd</text>
    </g>
  </g>
  <g transform="translate(80,8.33)">
    <g class="primitive">
      <text text-anchor="middle" dy="0.35em">gH</text>
    </g>
  </g>
  <g transform="translate(127.14,20.54)">
    <g class="primitive">
      <text text-anchor="middle" dy="0.35em">gleak</text>
    </g>
  </g>
</g>
</svg>
