<?xml version="1.0" encoding="UTF-8"?>
<svg xmlns="http://www.w3.org/2000/svg"
     xmlns:xlink="http://www.w3.org/1999/xlink"
     version="1.2"
     width="160mm" height="160mm" viewBox="0 0 160 160"
     stroke="none"
     fill="#000000"
     stroke-width="0.3"
     font-size="3.88"
>
<defs>
  <marker id="arrow" markerWidth="15" markerHeight="7" refX="5" refY="3.5" orient="auto" markerUnits="strokeWidth">
    <path d="M0,0 L15,3.5 L0,7 z" stroke="context-stroke" fill="context-stroke"/>
  </marker>
</defs>
<g fill="#000000" fill-opacity="0.000" id="img-b08a8e51-1">
  <g transform="translate(136.9,103.57)" stroke-width="0" stroke="#F37C82">
    <path fill="none" d="M5.3,-12.79 L-5.3,12.79 " class="primitive"/>
  </g>
  <g transform="translate(113.33,113.33)" stroke-width="2" stroke="#F37C82">
    <path fill="none" d="M25.08,-25.08 L-25.08,25.08 " class="primitive"/>
  </g>
  <g transform="translate(103.57,136.9)" stroke-width="0.62" stroke="#83AEDA">
    <path fill="none" d="M12.79,-5.3 L-12.79,5.3 " class="primitive"/>
  </g>
  <g transform="translate(89.76,103.57)" stroke-width="1.53" stroke="#F37C82">
    <path fill="none" d="M46.12,-19.11 L-46.12,19.11 " class="primitive"/>
  </g>
  <g transform="translate(80,127.14)" stroke-width="0.48" stroke="#F37C82">
    <path fill="none" d="M35.47,0 L-35.47,0 " class="primitive"/>
  </g>
  <g transform="translate(56.43,136.9)" stroke-width="1.44" stroke="#F37C82">
    <path fill="none" d="M12.79,5.3 L-12.79,-5.3 " class="primitive"/>
  </g>
  <g transform="translate(80,80)" stroke-width="0.76" stroke="#F37C82">
    <path fill="none" d="M55,0 L-55,0 " class="primitive"/>
  </g>
  <g transform="translate(70.24,103.57)" stroke-width="0" stroke="#F37C82">
    <path fill="none" d="M46.12,19.11 L-46.12,-19.11 " class="primitive"/>
  </g>
  <g transform="translate(46.67,113.33)" stroke-width="1.51" stroke="#F37C82">
    <path fill="none" d="M25.08,25.08 L-25.08,-25.08 " class="primitive"/>
  </g>
  <g transform="translate(23.1,103.57)" stroke-width="0" stroke="#F37C82">
    <path fill="none" d="M5.3,12.79 L-5.3,-12.79 " class="primitive"/>
  </g>
  <g transform="translate(89.76,56.43)" stroke-width="0" stroke="#F37C82">
    <path fill="none" d="M46.12,19.11 L-46.12,-19.11 " class="primitive"/>
  </g>
  <g transform="translate(80,80)" stroke-width="0" stroke="#F37C82">
    <path fill="none" d="M38.89,38.89 L-38.89,-38.89 " class="primitive"/>
  </g>
  <g transform="translate(56.43,89.76)" stroke-width="0.49" stroke="#F37C82">
    <path fill="none" d="M19.11,46.12 L-19.11,-46.12 " class="primitive"/>
  </g>
  <g transform="translate(32.86,80)" stroke-width="0.99" stroke="#83AEDA">
    <path fill="none" d="M0,35.47 L-0,-35.47 " class="primitive"/>
  </g>
  <g transform="translate(23.1,56.43)" stroke-width="1.44" stroke="#F37C82">
    <path fill="none" d="M-5.3,12.79 L5.3,-12.79 " class="primitive"/>
  </g>
  <g transform="translate(113.33,46.67)" stroke-width="1.57" stroke="#F37C82">
    <path fill="none" d="M25.08,25.08 L-25.08,-25.08 " class="primitive"/>
  </g>
  <g transform="translate(103.57,70.24)" stroke-width="0" stroke="#F37C82">
    <path fill="none" d="M19.11,46.12 L-19.11,-46.12 " class="primitive"/>
  </g>
  <g transform="translate(80,80)" stroke-width="1.77" stroke="#F37C82">
    <path fill="none" d="M0,55 L-0,-55 " class="primitive"/>
  </g>
  <g transform="translate(56.43,70.24)" stroke-width="0.76" stroke="#F37C82">
    <path fill="none" d="M-19.11,46.12 L19.11,-46.12 " class="primitive"/>
  </g>
  <g transform="translate(46.67,46.67)" stroke-width="1.18" stroke="#F37C82">
    <path fill="none" d="M-25.08,25.08 L25.08,-25.08 " class="primitive"/>
  </g>
  <g transform="translate(56.43,23.1)" stroke-width="0" stroke="#F37C82">
    <path fill="none" d="M-12.79,5.3 L12.79,-5.3 " class="primitive"/>
  </g>
  <g transform="translate(136.9,56.43)" stroke-width="0" stroke="#F37C82">
    <path fill="none" d="M5.3,12.79 L-5.3,-12.79 " class="primitive"/>
  </g>
  <g transform="translate(127.14,80)" stroke-width="0" stroke="#F37C82">
    <path fill="none" d="M0,35.47 L0,-35.47 " class="primitive"/>
  </g>
  <g transform="translate(103.57,89.76)" stroke-width="0" stroke="#F37C82">
    <path fill="none" d="M-19.11,46.12 L19.11,-46.12 " class="primitive"/>
  </g>
  <g transform="translate(80,80)" stroke-width="0" stroke="#F37C82">
    <path fill="none" d="M-38.89,38.89 L38.89,-38.89 " class="primitive"/>
  </g>
  <g transform="translate(70.24,56.43)" stroke-width="0" stroke="#F37C82">
    <path fill="none" d="M-46.12,19.11 L46.12,-19.11 " class="primitive"/>
  </g>
  <g transform="translate(80,32.86)" stroke-width="0" stroke="#F37C82">
    <path fill="none" d="M-35.47,0 L35.47,-0 " class="primitive"/>
  </g>
  <g transform="translate(103.57,23.1)" stroke-width="0.37" stroke="#83AEDA">
    <path fill="none" d="M-12.79,-5.3 L12.79,5.3 " class="primitive"/>
  </g>
</g>
<g font-size="4" stroke="#000000" stroke-opacity="0.000" fill="#000000" id="img-b08a8e51-2">
</g>
<g stroke-width="0" stroke="#000000" stroke-opacity="0.000" id="img-b08a8e51-3">
  <g transform="translate(146.67,80)" fill="#B2B2B2">
    <circle cx="0" cy="0" r="11.2" class="primitive"/>
  </g>
  <g transform="translate(127.14,127.14)" fill="#B2B2B2">
    <circle cx="0" cy="0" r="11.2" class="primitive"/>
  </g>
  <g transform="translate(80,146.67)" fill="#B2B2B2">
    <circle cx="0" cy="0" r="11.2" class="primitive"/>
  </g>
  <g transform="translate(32.86,127.14)" fill="#B2B2B2">
    <circle cx="0" cy="0" r="11.2" class="primitive"/>
  </g>
  <g transform="translate(13.33,80)" fill="#B2B2B2">
    <circle cx="0" cy="0" r="11.2" class="primitive"/>
  </g>
  <g transform="translate(32.86,32.86)" fill="#B2B2B2">
    <circle cx="0" cy="0" r="11.2" class="primitive"/>
  </g>
  <g transform="translate(80,13.33)" fill="#B2B2B2">
    <circle cx="0" cy="0" r="11.2" class="primitive"/>
  </g>
  <g transform="translate(127.14,32.86)" fill="#B2B2B2">
    <circle cx="0" cy="0" r="11.2" class="primitive"/>
  </g>
</g>
<g font-size="4" stroke="#000000" stroke-opacity="0.000" fill="#000000" id="img-b08a8e51-4">
  <g transform="translate(146.67,80)">
    <g class="primitive">
      <text text-anchor="middle" dy="0.35em">gNa</text>
    </g>
  </g>
  <g transform="translate(127.14,127.14)">
    <g class="primitive">
      <text text-anchor="middle" dy="0.35em">gCaT</text>
    </g>
  </g>
  <g transform="translate(80,146.67)">
    <g class="primitive">
      <text text-anchor="middle" dy="0.35em">gCaS</text>
    </g>
  </g>
  <g transform="translate(32.86,127.14)">
    <g class="primitive">
      <text text-anchor="middle" dy="0.35em">gA</text>
    </g>
  </g>
  <g transform="translate(13.33,80)">
    <g class="primitive">
      <text text-anchor="middle" dy="0.35em">gKCa</text>
    </g>
  </g>
  <g transform="translate(32.86,32.86)">
    <g class="primitive">
      <text text-anchor="middle" dy="0.35em">gKd</text>
    </g>
  </g>
  <g transform="translate(80,13.33)">
    <g class="primitive">
      <text text-anchor="middle" dy="0.35em">gH</text>
    </g>
  </g>
  <g transform="translate(127.14,32.86)">
    <g class="primitive">
      <text text-anchor="middle" dy="0.35em">gleak</text>
    </g>
  </g>
</g>
</svg>
