<?xml version="1.0" encoding="UTF-8"?>
<svg xmlns="http://www.w3.org/2000/svg"
     xmlns:xlink="http://www.w3.org/1999/xlink"
     version="1.2"
     width="160mm" height="160mm" viewBox="0 0 160 160"
     stroke="none"
     fill="#000000"
     stroke-width="0.3"
     font-size="3.88"
>
<defs>
  <marker id="arrow" markerWidth="15" markerHeight="7" refX="5" refY="3.5" orient="auto" markerUnits="strokeWidth">
    <path d="M0,0 L15,3.5 L0,7 z" stroke="context-stroke" fill="context-stroke"/>
  </marker>
</defs>
<g fill="#000000" fill-opacity="0.000" id="img-e0f51593-1">
  <g transform="translate(130,113.33)" stroke-width="0.5" stroke="#F37C82">
    <path fill="none" d="M11.45,-22.9 L-11.45,22.9 " class="primitive"/>
  </g>
  <g transform="translate(96.67,113.33)" stroke-width="0.5" stroke="#F37C82">
    <path fill="none" d="M40.29,-26.86 L-40.29,26.86 " class="primitive"/>
  </g>
  <g transform="translate(80,146.67)" stroke-width="1.61" stroke="#F37C82">
    <path fill="none" d="M21.67,0 L-21.67,0 " class="primitive"/>
  </g>
  <g transform="translate(80,80)" stroke-width="0.41" stroke="#F37C82">
    <path fill="none" d="M55,0 L-55,0 " class="primitive"/>
  </g>
  <g transform="translate(63.33,113.33)" stroke-width="0.74" stroke="#F37C82">
    <path fill="none" d="M40.29,26.86 L-40.29,-26.86 " class="primitive"/>
  </g>
  <g transform="translate(30,113.33)" stroke-width="0.78" stroke="#83AEDA">
    <path fill="none" d="M11.45,22.9 L-11.45,-22.9 " class="primitive"/>
  </g>
  <g transform="translate(96.67,46.67)" stroke-width="0" stroke="#F37C82">
    <path fill="none" d="M40.29,26.86 L-40.29,-26.86 " class="primitive"/>
  </g>
  <g transform="translate(80,80)" stroke-width="1.46" stroke="#F37C82">
    <path fill="none" d="M28.12,56.23 L-28.12,-56.23 " class="primitive"/>
  </g>
  <g transform="translate(46.67,80)" stroke-width="0.51" stroke="#F37C82">
    <path fill="none" d="M0,55 L-0,-55 " class="primitive"/>
  </g>
  <g transform="translate(30,46.67)" stroke-width="1.23" stroke="#F37C82">
    <path fill="none" d="M-11.45,22.9 L11.45,-22.9 " class="primitive"/>
  </g>
  <g transform="translate(130,46.67)" stroke-width="0" stroke="#F37C82">
    <path fill="none" d="M11.45,22.9 L-11.45,-22.9 " class="primitive"/>
  </g>
  <g transform="translate(113.33,80)" stroke-width="0.5" stroke="#F37C82">
    <path fill="none" d="M0,55 L0,-55 " class="primitive"/>
  </g>
  <g transform="translate(80,80)" stroke-width="0" stroke="#F37C82">
    <path fill="none" d="M-28.12,56.23 L28.12,-56.23 " class="primitive"/>
  </g>
  <g transform="translate(63.33,46.67)" stroke-width="1" stroke="#F37C82">
    <path fill="none" d="M-40.29,26.86 L40.29,-26.86 " class="primitive"/>
  </g>
  <g transform="translate(80,13.33)" stroke-width="2" stroke="#F37C82">
    <path fill="none" d="M-21.67,0 L21.67,-0 " class="primitive"/>
  </g>
</g>
<g font-size="4" stroke="#000000" stroke-opacity="0.000" fill="#000000" id="img-e0f51593-2">
</g>
<g stroke-width="0" stroke="#000000" stroke-opacity="0.000" id="img-e0f51593-3">
  <g transform="translate(146.67,80)" fill="#B2B2B2">
    <circle cx="0" cy="0" r="11.2" class="primitive"/>
  </g>
  <g transform="translate(113.33,146.67)" fill="#B2B2B2">
    <circle cx="0" cy="0" r="11.2" class="primitive"/>
  </g>
  <g transform="translate(46.67,146.67)" fill="#B2B2B2">
    <circle cx="0" cy="0" r="11.2" class="primitive"/>
  </g>
  <g transform="translate(13.33,80)" fill="#B2B2B2">
    <circle cx="0" cy="0" r="11.2" class="primitive"/>
  </g>
  <g transform="translate(46.67,13.33)" fill="#B2B2B2">
    <circle cx="0" cy="0" r="11.2" class="primitive"/>
  </g>
  <g transform="translate(113.33,13.33)" fill="#B2B2B2">
    <circle cx="0" cy="0" r="11.2" class="primitive"/>
  </g>
</g>
<g font-size="4" stroke="#000000" stroke-opacity="0.000" fill="#000000" id="img-e0f51593-4">
  <g transform="translate(146.67,80)">
    <g class="primitive">
      <text text-anchor="middle" dy="0.35em">gNa</text>
    </g>
  </g>
  <g transform="translate(113.33,146.67)">
    <g class="primitive">
      <text text-anchor="middle" dy="0.35em">gKd</text>
    </g>
  </g>
  <g transform="translate(46.67,146.67)">
    <g class="primitive">
      <text text-anchor="middle" dy="0.35em">gCaL</text>
    </g>
  </g>
  <g transform="translate(13.33,80)">
    <g class="primitive">
      <text text-anchor="middle" dy="0.35em">gCaN</text>
    </g>
  </g>
  <g transform="translate(46.67,13.33)">
    <g class="primitive">
      <text text-anchor="middle" dy="0.35em">gERG</text>
    </g>
  </g>
  <g transform="translate(113.33,13.33)">
    <g class="primitive">
      <text text-anchor="middle" dy="0.35em">gleak</text>
    </g>
  </g>
</g>
</svg>
