<?xml version="1.0" encoding="UTF-8"?>
<svg xmlns="http://www.w3.org/2000/svg"
     xmlns:xlink="http://www.w3.org/1999/xlink"
     version="1.2"
     width="160mm" height="100mm" viewBox="0 0 160 100"
     stroke="none"
     fill="#000000"
     stroke-width="0.3"
     font-size="3.88"
>
<defs>
  <marker id="arrow" markerWidth="15" markerHeight="7" refX="5" refY="3.5" orient="auto" markerUnits="strokeWidth">
    <path d="M0,0 L15,3.5 L0,7 z" stroke="context-stroke" fill="context-stroke"/>
  </marker>
</defs>
<g fill="#000000" fill-opacity="0.000" id="img-cad736b0-1">
  <g transform="translate(130,70.83)" stroke-width="2" stroke="#F37C82">
    <path fill="none" d="M11.45,-14.31 L-11.45,14.31 " class="primitive"/>
  </g>
  <g transform="translate(96.67,70.83)" stroke-width="2" stroke="#F37C82">
    <path fill="none" d="M40.29,-16.79 L-40.29,16.79 " class="primitive"/>
  </g>
  <g transform="translate(80,91.67)" stroke-width="2" stroke="#F37C82">
    <path fill="none" d="M21.67,0 L-21.67,0 " class="primitive"/>
  </g>
  <g transform="translate(80,50)" stroke-width="2" stroke="#F37C82">
    <path fill="none" d="M55,-0 L-55,0 " class="primitive"/>
  </g>
  <g transform="translate(63.33,70.83)" stroke-width="2" stroke="#F37C82">
    <path fill="none" d="M40.29,16.79 L-40.29,-16.79 " class="primitive"/>
  </g>
  <g transform="translate(30,70.83)" stroke-width="2" stroke="#F37C82">
    <path fill="none" d="M11.45,14.31 L-11.45,-14.31 " class="primitive"/>
  </g>
  <g transform="translate(96.67,29.17)" stroke-width="2" stroke="#F37C82">
    <path fill="none" d="M40.29,16.79 L-40.29,-16.79 " class="primitive"/>
  </g>
  <g transform="translate(80,50)" stroke-width="2" stroke="#F37C82">
    <path fill="none" d="M28.12,35.14 L-28.12,-35.14 " class="primitive"/>
  </g>
  <g transform="translate(46.67,50)" stroke-width="2" stroke="#F37C82">
    <path fill="none" d="M0,34.38 L-0,-34.38 " class="primitive"/>
  </g>
  <g transform="translate(30,29.17)" stroke-width="2" stroke="#F37C82">
    <path fill="none" d="M-11.45,14.31 L11.45,-14.31 " class="primitive"/>
  </g>
  <g transform="translate(130,29.17)" stroke-width="2" stroke="#F37C82">
    <path fill="none" d="M11.45,14.31 L-11.45,-14.31 " class="primitive"/>
  </g>
  <g transform="translate(113.33,50)" stroke-width="2" stroke="#F37C82">
    <path fill="none" d="M0,34.38 L0,-34.38 " class="primitive"/>
  </g>
  <g transform="translate(80,50)" stroke-width="2" stroke="#F37C82">
    <path fill="none" d="M-28.12,35.14 L28.12,-35.14 " class="primitive"/>
  </g>
  <g transform="translate(63.33,29.17)" stroke-width="2" stroke="#F37C82">
    <path fill="none" d="M-40.29,16.79 L40.29,-16.79 " class="primitive"/>
  </g>
  <g transform="translate(80,8.33)" stroke-width="2" stroke="#F37C82">
    <path fill="none" d="M-21.67,0 L21.67,-0 " class="primitive"/>
  </g>
</g>
<g font-size="4" stroke="#000000" stroke-opacity="0.000" fill="#000000" id="img-cad736b0-2">
</g>
<g stroke-width="0" stroke="#000000" stroke-opacity="0.000" id="img-cad736b0-3">
  <g transform="translate(146.67,50)" fill="#B2B2B2">
    <circle cx="0" cy="0" r="11.2" class="primitive"/>
  </g>
  <g transform="translate(113.33,91.67)" fill="#B2B2B2">
    <circle cx="0" cy="0" r="11.2" class="primitive"/>
  </g>
  <g transform="translate(46.67,91.67)" fill="#B2B2B2">
    <circle cx="0" cy="0" r="11.2" class="primitive"/>
  </g>
  <g transform="translate(13.33,50)" fill="#B2B2B2">
    <circle cx="0" cy="0" r="11.2" class="primitive"/>
  </g>
  <g transform="translate(46.67,8.33)" fill="#B2B2B2">
    <circle cx="0" cy="0" r="11.2" class="primitive"/>
  </g>
  <g transform="translate(113.33,8.33)" fill="#B2B2B2">
    <circle cx="0" cy="0" r="11.2" class="primitive"/>
  </g>
</g>
<g font-size="4" stroke="#000000" stroke-opacity="0.000" fill="#000000" id="img-cad736b0-4">
  <g transform="translate(146.67,50)">
    <g class="primitive">
      <text text-anchor="middle" dy="0.35em">gNa</text>
    </g>
  </g>
  <g transform="translate(113.33,91.67)">
    <g class="primitive">
      <text text-anchor="middle" dy="0.35em">gKd</text>
    </g>
  </g>
  <g transform="translate(46.67,91.67)">
    <g class="primitive">
      <text text-anchor="middle" dy="0.35em">gCaL</text>
    </g>
  </g>
  <g transform="translate(13.33,50)">
    <g class="primitive">
      <text text-anchor="middle" dy="0.35em">gCaN</text>
    </g>
  </g>
  <g transform="translate(46.67,8.33)">
    <g class="primitive">
      <text text-anchor="middle" dy="0.35em">gERG</text>
    </g>
  </g>
  <g transform="translate(113.33,8.33)">
    <g class="primitive">
      <text text-anchor="middle" dy="0.35em">gleak</text>
    </g>
  </g>
</g>
</svg>
